<?xml version="1.0" standalone="no"?>
<!DOCTYPE svg PUBLIC "-//W3C//DTD SVG 20010904//EN"
 "http://www.w3.org/TR/2001/REC-SVG-20010904/DTD/svg10.dtd">
<svg version="1.0" xmlns="http://www.w3.org/2000/svg"
 width="1000.000000pt" height="1000.000000pt" viewBox="0 0 1000.000000 1000.000000"
 preserveAspectRatio="xMidYMid meet">
<metadata>
Created by potrace 1.14, written by Peter Selinger 2001-2017
</metadata>
<g transform="translate(0.000000,1000.000000) scale(0.100000,-0.100000)"
fill="#000000" stroke="none">
<path d="M8568 8225 c-2 -1 -29 -5 -61 -9 -63 -6 -164 -30 -212 -49 -16 -6
-34 -12 -40 -13 -5 -1 -42 -17 -81 -36 -349 -171 -719 -569 -1066 -1148 -157
-262 -370 -673 -487 -940 -48 -110 -57 -127 -66 -118 -4 4 7 51 23 105 43 139
195 662 207 713 2 8 25 89 50 180 63 227 143 525 149 558 3 15 15 77 26 137
49 253 30 333 -92 385 -140 60 -359 13 -460 -99 -62 -69 -140 -232 -209 -436
-44 -130 -110 -319 -199 -570 -102 -287 -195 -571 -270 -825 -33 -113 -65
-218 -70 -235 -9 -32 -89 -329 -96 -357 -8 -36 -13 -56 -48 -203 -20 -82 -46
-188 -57 -235 -30 -123 -96 -443 -109 -525 -6 -38 -13 -81 -15 -95 -2 -14 -7
-47 -11 -75 -3 -27 -8 -58 -10 -68 -2 -10 -6 -53 -9 -95 -3 -42 -8 -93 -11
-112 -6 -44 -6 -227 0 -260 3 -14 7 -43 11 -64 8 -59 45 -124 88 -158 48 -38
127 -56 235 -53 66 2 93 8 145 33 115 53 188 148 338 437 45 88 111 212 147
275 79 142 306 597 431 865 104 223 523 1069 571 1155 17 30 57 100 88 155
178 318 421 686 562 849 81 95 112 129 190 206 153 153 310 280 365 294 40 11
118 -99 191 -269 47 -110 151 -456 168 -560 2 -16 9 -53 15 -81 16 -82 40
-280 47 -394 13 -230 1 -756 -21 -900 -2 -14 -7 -52 -10 -85 -3 -33 -7 -70 -9
-81 -2 -12 -7 -45 -11 -75 -7 -60 -11 -89 -25 -169 -5 -30 -12 -71 -15 -90
-80 -480 -257 -1028 -476 -1471 -198 -398 -375 -655 -624 -905 -218 -218 -404
-346 -620 -427 -252 -94 -502 -108 -753 -43 -126 33 -247 108 -281 174 -38 75
-11 185 65 265 113 119 305 187 679 242 22 4 51 9 65 11 14 3 95 7 180 9 154
4 198 0 370 -39 63 -14 202 -14 265 -1 123 25 215 115 215 207 -1 129 -228
252 -525 285 -126 14 -626 5 -654 -11 -3 -2 -31 -7 -61 -10 -72 -8 -115 -16
-235 -40 -261 -54 -626 -195 -755 -293 -158 -119 -276 -290 -315 -454 -16 -72
-12 -198 8 -255 59 -163 190 -284 419 -388 71 -32 156 -63 194 -70 10 -2 37
-9 59 -15 103 -27 204 -44 365 -60 84 -9 453 -6 520 4 19 2 53 7 75 10 196 25
469 100 635 173 19 8 37 16 40 16 3 1 50 24 105 52 450 227 849 595 1175 1082
42 64 87 133 98 152 11 19 36 64 57 100 145 254 295 613 403 965 77 250 173
685 197 895 3 19 7 49 10 65 2 17 7 58 10 92 4 35 8 71 9 80 26 132 26 750 1
951 -2 15 -6 59 -10 97 -4 39 -9 84 -11 100 -2 17 -7 50 -10 75 -2 25 -7 52
-9 60 -2 8 -7 38 -11 65 -3 28 -8 53 -10 56 -2 3 -6 19 -8 35 -38 204 -132
498 -226 706 -156 344 -363 528 -650 580 -52 9 -245 19 -252 13z"/>
<path d="M3718 8155 c-2 -1 -39 -6 -83 -9 -44 -4 -112 -11 -152 -17 -70 -10
-81 -11 -153 -26 -19 -4 -39 -7 -45 -8 -51 -5 -311 -74 -420 -110 -614 -207
-1110 -569 -1417 -1035 -160 -244 -268 -537 -269 -730 -2 -327 172 -592 508
-772 91 -49 110 -71 71 -84 -58 -18 -347 -165 -475 -242 -360 -215 -690 -572
-871 -944 -95 -194 -156 -372 -177 -513 -1 -11 -6 -40 -11 -65 -15 -84 -10
-348 9 -440 47 -226 142 -430 275 -590 295 -355 767 -627 1239 -716 48 -9 97
-18 107 -20 40 -7 173 -24 236 -29 36 -3 83 -7 105 -10 47 -5 426 -6 470 -1
17 2 62 7 100 10 100 11 110 12 205 30 638 122 1329 504 1709 945 143 166 244
320 281 426 65 186 -17 580 -148 714 -79 81 -195 122 -321 116 -112 -6 -211
-67 -211 -130 0 -28 20 -75 31 -75 13 0 32 -72 34 -134 3 -72 -10 -160 -31
-223 -18 -51 -84 -195 -94 -203 -3 -3 -18 -26 -33 -51 -102 -178 -280 -361
-522 -536 -58 -42 -241 -150 -308 -182 -376 -179 -859 -268 -1172 -216 -130
22 -139 24 -216 50 -41 14 -82 28 -92 30 -39 9 -201 102 -280 161 -297 223
-415 513 -356 879 44 280 167 564 397 915 256 392 443 565 757 700 181 78 380
134 520 145 112 9 229 50 282 98 23 21 44 46 47 55 21 69 6 124 -47 176 -65
63 -122 85 -342 132 -197 42 -173 36 -286 74 -237 79 -354 173 -400 320 -66
212 66 582 325 915 156 201 429 429 659 550 149 79 378 159 517 181 19 3 37 7
41 9 13 8 162 20 249 20 120 0 190 -22 257 -78 101 -84 153 -211 154 -372 1
-164 -28 -283 -110 -450 -119 -243 -287 -427 -625 -685 -54 -41 -109 -84 -121
-95 -25 -23 -52 -74 -49 -92 1 -7 2 -22 3 -33 4 -59 143 -130 266 -136 323
-14 809 286 1096 676 110 149 214 340 267 492 138 391 38 739 -278 972 -79 59
-209 125 -311 159 -81 27 -275 73 -346 82 -24 3 -62 8 -85 11 -41 5 -355 13
-360 9z"/>
</g>
</svg>
